<svg width="24" height="15" viewBox="0 0 24 15" fill="none" xmlns="http://www.w3.org/2000/svg">
<path fill-rule="evenodd" clip-rule="evenodd" d="M23.25 6.75H22.5V3.75C22.5 2.92157 21.8284 2.25 21 2.25H19.5V1.5C19.5 0.671573 18.8284 0 18 0H15.75C14.9216 0 14.25 0.671573 14.25 1.5V6.75H9.75V1.5C9.75 0.671573 9.07843 0 8.25 0H6C5.17157 0 4.5 0.671573 4.5 1.5V2.25H3C2.17157 2.25 1.5 2.92157 1.5 3.75V6.75H0.75C0.335786 6.75 0 7.08579 0 7.5C0 7.91421 0.335786 8.25 0.75 8.25H1.5V11.25C1.5 12.0784 2.17157 12.75 3 12.75H4.5V13.5C4.5 14.3284 5.17157 15 6 15H8.25C9.07843 15 9.75 14.3284 9.75 13.5V8.25H14.25V13.5C14.25 14.3284 14.9216 15 15.75 15H18C18.8284 15 19.5 14.3284 19.5 13.5V12.75H21C21.8284 12.75 22.5 12.0784 22.5 11.25V8.25H23.25C23.6642 8.25 24 7.91421 24 7.5C24 7.08579 23.6642 6.75 23.25 6.75ZM3 11.25V3.75H4.5V11.25H3ZM8.25 13.5H6V1.5H8.25V13.5ZM18 13.5H15.75V1.5H18V11.9831C18 11.9888 18 11.9944 18 12C18 12.0056 18 12.0112 18 12.0169V13.5ZM21 11.25H19.5V3.75H21V11.25Z" fill="#121714"/>
</svg>
