<svg width="20" height="17" viewBox="0 0 20 17" fill="none" xmlns="http://www.w3.org/2000/svg">
<path fill-rule="evenodd" clip-rule="evenodd" d="M13.1663 6.12562L8.66625 3.12563C8.43605 2.97204 8.13998 2.95769 7.89601 3.08831C7.65204 3.21892 7.49982 3.47327 7.5 3.75V9.75C7.49982 10.0267 7.65204 10.2811 7.89601 10.4117C8.13998 10.5423 8.43605 10.528 8.66625 10.3744L13.1663 7.37438C13.3752 7.23533 13.5007 7.00098 13.5007 6.75C13.5007 6.49902 13.3752 6.26467 13.1663 6.12562ZM9 8.34844V5.15625L11.3981 6.75L9 8.34844ZM18 0H1.5C0.671573 0 0 0.671573 0 1.5V12C0 12.8284 0.671573 13.5 1.5 13.5H18C18.8284 13.5 19.5 12.8284 19.5 12V1.5C19.5 0.671573 18.8284 0 18 0ZM18 12H1.5V1.5H18V12ZM19.5 15.75C19.5 16.1642 19.1642 16.5 18.75 16.5H0.75C0.335786 16.5 0 16.1642 0 15.75C0 15.3358 0.335786 15 0.75 15H18.75C19.1642 15 19.5 15.3358 19.5 15.75Z" fill="#0D1C14"/>
</svg>
