<svg width="18" height="19" viewBox="0 0 18 19" fill="none" xmlns="http://www.w3.org/2000/svg">
<path fill-rule="evenodd" clip-rule="evenodd" d="M18 8.58135V17.2485C18 18.077 17.3284 18.7485 16.5 18.7485H12.75C11.9216 18.7485 11.25 18.077 11.25 17.2485V13.4985C11.25 13.0843 10.9142 12.7485 10.5 12.7485H7.5C7.08579 12.7485 6.75 13.0843 6.75 13.4985V17.2485C6.75 18.077 6.07843 18.7485 5.25 18.7485H1.5C0.671573 18.7485 0 18.077 0 17.2485V8.58135C-6.38962e-05 8.16162 0.17573 7.76107 0.484688 7.47697L7.98469 0.400723L7.995 0.39041C8.56719 -0.129964 9.44124 -0.129964 10.0134 0.39041C10.0166 0.394078 10.0201 0.397524 10.0238 0.400723L17.5238 7.47697C17.8296 7.76256 18.0022 8.16291 18 8.58135Z" fill="#121714"/>
</svg>
